# xmcd CD database file
#
# Track frame offsets:
#	150
#	18962
#	33784
#	49334
#	68695
#	86932
#	104886
#	124401
#	139358
#	156058
#	172415
#	186899
#	206167
#
# Disc length: 2957 seconds
#
# Revision: 0
# Processed by: cddbd v1.5.2PL0 Copyright (c) Steve Scherf et al.
# Submitted via: CDex 1.51
#
DISCID=c80b8b0d
DTITLE=Brantley Gilbert - A mondern day prodigal son
DYEAR=2009
DGENRE=Country
TTITLE0=Freshman Year
TTITLE1=What's left of a small town
TTITLE2=GRITS
TTITLE3=Whever we are alone
TTITLE4=The Best of Me
TTITLE5=My Kind of Party
TTITLE6=A modern day prodigal son 
TTITLE7=Live it up
TTITLE8=Friday Night
TTITLE9=Inidana's Angel 
TTITLE10=Rock this Town
TTITLE11=Picture on the Dashboard
TTITLE12=Play Me that song
EXTD=YEAR: 2009
EXTT0=
EXTT1=
EXTT2=
EXTT3=
EXTT4=
EXTT5=
EXTT6=
EXTT7=
EXTT8=
EXTT9=
EXTT10=
EXTT11=
EXTT12=
PLAYORDER=
